HIERARCHY
ROOT Hips
{
	OFFSET 0.000000 0.000000 0.000000
	CHANNELS 6 Xposition Yposition Zposition Xrotation Yrotation Zrotation
	JOINT LeftUpLeg_virtual
	{
		OFFSET 0.000000 0.000000 0.000000
		CHANNELS 3 Xrotation Yrotation Zrotation
		JOINT LeftUpLeg
		{
			OFFSET 13.026900 -6.336304 -1.092800
			CHANNELS 3 Xrotation Yrotation Zrotation
			JOINT LeftLeg
			{
				OFFSET 0.524474 -46.096886 9.782700
				CHANNELS 3 Xrotation Yrotation Zrotation
				JOINT LeftFoot
				{
					OFFSET -0.524474 -53.427422 -12.948200
					CHANNELS 3 Xrotation Yrotation Zrotation
					JOINT LeftToeBase
					{
						OFFSET 0.192200 -14.009700 16.364100
						CHANNELS 3 Xrotation Yrotation Zrotation
						JOINT LeftToe_End
						{
							OFFSET -1.784700 -0.561700 9.474800
							CHANNELS 3 Xrotation Yrotation Zrotation
							End Site
							{
								OFFSET 0 0 0
							}
						}
					}
				}
			}
		}
	}
	JOINT RightUpLeg_virtual
	{
		OFFSET 0.000000 0.000000 0.000000
		CHANNELS 3 Xrotation Yrotation Zrotation
		JOINT RightUpLeg
		{
			OFFSET -12.883000 -6.336304 -1.092800
			CHANNELS 3 Xrotation Yrotation Zrotation
			JOINT RightLeg
			{
				OFFSET -0.524587 -46.096825 9.782800
				CHANNELS 3 Xrotation Yrotation Zrotation
				JOINT RightFoot
				{
					OFFSET 0.524587 -53.427383 -12.948300
					CHANNELS 3 Xrotation Yrotation Zrotation
					JOINT RightToeBase
					{
						OFFSET -0.192200 -14.009700 16.364100
						CHANNELS 3 Xrotation Yrotation Zrotation
						JOINT RightToe_End
						{
							OFFSET 1.784700 -0.561700 9.474800
							CHANNELS 3 Xrotation Yrotation Zrotation
							End Site
							{
								OFFSET 0 0 0
							}
						}
					}
				}
			}
		}
	}
	JOINT Spine_virtual
	{
		OFFSET 0.000000 0.000000 0.000000
		CHANNELS 3 Xrotation Yrotation Zrotation
		JOINT Spine
		{
			OFFSET 0.072000 7.257294 -0.789700
			CHANNELS 3 Xrotation Yrotation Zrotation
			JOINT Spine1
			{
				OFFSET 0.000000 12.508769 -0.658067
				CHANNELS 3 Xrotation Yrotation Zrotation
				JOINT Spine1_split
				{
					OFFSET 0.000000 12.508769 -0.658067
					CHANNELS 3 Xrotation Yrotation Zrotation
					JOINT Spine2
					{
						OFFSET 0.000000 12.508769 -0.658067
						CHANNELS 3 Xrotation Yrotation Zrotation
						JOINT Neck_virtual
						{
							OFFSET 0.000000 0.000000 0.000000
							CHANNELS 3 Xrotation Yrotation Zrotation
							JOINT Neck
							{
								OFFSET 0.000000 14.033295 7.520400
								CHANNELS 3 Xrotation Yrotation Zrotation
								JOINT Head
								{
									OFFSET 0.000000 8.198502 5.703100
									CHANNELS 3 Xrotation Yrotation Zrotation
									JOINT HeadTop_End
									{
										OFFSET 0.000000 17.760803 13.332701
										CHANNELS 3 Xrotation Yrotation Zrotation
										End Site
										{
											OFFSET 0 0 0
										}
									}
								}
							}
						}
						JOINT LeftShoulder_virtual
						{
							OFFSET 0.000000 0.000000 0.000000
							CHANNELS 3 Xrotation Yrotation Zrotation
							JOINT LeftShoulder
							{
								OFFSET 6.292450 5.785301 -0.669000
								CHANNELS 3 Xrotation Yrotation Zrotation
								JOINT LeftShoulder_split
								{
									OFFSET 6.292450 5.785301 -0.669000
									CHANNELS 3 Xrotation Yrotation Zrotation
									JOINT LeftArm
									{
										OFFSET 13.907140 -6.093903 1.965100
										CHANNELS 3 Xrotation Yrotation Zrotation
										JOINT LeftForeArm
										{
											OFFSET 34.140198 0.000000 0.000000
											CHANNELS 3 Xrotation Yrotation Zrotation
											JOINT LeftHand
											{
												OFFSET 40.960209 0.000000 0.000000
												CHANNELS 3 Xrotation Yrotation Zrotation
												End Site
												{
													OFFSET 0 0 0
												}
											}
										}
									}
								}
							}
						}
						JOINT RightShoulder_virtual
						{
							OFFSET 0.000000 0.000000 0.000000
							CHANNELS 3 Xrotation Yrotation Zrotation
							JOINT RightShoulder
							{
								OFFSET -6.292450 5.785301 -0.669000
								CHANNELS 3 Xrotation Yrotation Zrotation
								JOINT RightShoulder_split
								{
									OFFSET -6.292450 5.785301 -0.669000
									CHANNELS 3 Xrotation Yrotation Zrotation
									JOINT RightArm
									{
										OFFSET -13.907140 -6.093903 1.965100
										CHANNELS 3 Xrotation Yrotation Zrotation
										JOINT RightForeArm
										{
											OFFSET -34.140198 0.000000 0.000000
											CHANNELS 3 Xrotation Yrotation Zrotation
											JOINT RightHand
											{
												OFFSET -40.960209 0.000000 0.000000
												CHANNELS 3 Xrotation Yrotation Zrotation
												End Site
												{
													OFFSET 0 0 0
												}
											}
										}
									}
								}
							}
						}
					}
				}
			}
		}
	}
}
MOTION
Frames: 6
Frame Time: 0.03333333
6.989299 169.562958 -3.057592 0.000000 0.000000 0.000000 4.287932 11.070366 -0.592490 -54.009454 0.146195 0.957436 61.466744 9.477199 -0.591558 20.237854 3.731242 -12.253813 -7.763427 3.974211 1.362632 0.000000 0.000000 0.000000 5.509497 12.178400 -0.788410 -30.384264 -8.328411 -14.623949 50.445008 10.534282 4.425107 0.648306 -23.089864 12.788830 -8.761552 4.501083 0.359878 0.000000 0.000000 0.000000 5.047307 11.843278 -0.377501 -6.967067 0.492583 13.309273 -1.751520 3.412026 -1.095913 0.074413 -0.631807 -0.072198 0.000000 0.000000 0.000000 8.464270 4.457007 0.436982 -11.247483 14.125550 -6.712476 -57.405527 -45.976401 -35.819554 0.000000 0.000000 0.000000 -0.951946 3.743698 -1.237899 14.640476 -9.196035 42.299621 6.489938 5.551834 0.822281 -68.503963 -21.922894 5.652784 -32.441247 -17.483454 3.725793 0.000000 0.000000 0.000000 1.001927 3.081837 0.475724 -8.887058 -20.278080 -48.356510 -5.102895 3.885555 -3.162923 -81.420991 26.527555 3.196616 -44.541429 17.618847 38.521406 0.000000 0.000000 0.000000 
6.743725 170.263565 -6.181360 0.000000 0.000000 0.000000 3.902007 9.165867 -0.121292 -53.901804 -0.698522 -0.014984 63.398765 8.244868 -0.018679 20.082208 2.030917 -14.199691 -7.649659 3.667982 1.738323 0.000000 0.000000 0.000000 5.476521 10.399778 -0.362866 -29.728497 -9.019943 -13.889576 55.495034 11.556200 3.978911 2.391373 -23.215096 11.444242 -9.019845 4.512102 1.188369 0.000000 0.000000 0.000000 5.467918 10.872376 0.209917 -7.534658 0.380666 13.007384 -2.031868 3.537764 -1.127059 0.068256 -0.585276 -0.137425 0.000000 0.000000 0.000000 8.491214 4.559586 0.301312 -11.386818 13.508738 -5.959702 -56.156186 -46.363396 -35.063555 0.000000 0.000000 0.000000 -0.924283 3.797767 -1.099495 14.200039 -9.182990 43.027866 4.844571 5.738850 0.412121 -70.437221 -24.469421 3.886423 -31.284104 -18.845998 4.750429 0.000000 0.000000 0.000000 1.402390 3.187754 0.505965 -9.360347 -20.187920 -48.980267 -3.285333 2.855914 -3.001846 -84.458458 24.608810 5.061217 -46.625228 19.099839 39.539917 0.000000 0.000000 0.000000 
6.383717 172.247818 -10.670519 0.000000 0.000000 0.000000 3.015443 5.140343 0.433569 -52.261968 -1.606608 -1.663619 64.530254 6.501226 0.551124 17.728234 0.620935 -14.649436 -7.852575 3.153509 2.058454 0.000000 0.000000 0.000000 5.138882 6.470893 0.167117 -25.955236 -9.162800 -12.650325 56.073357 12.448249 3.319032 6.662215 -22.433138 12.004837 -15.048631 4.210865 2.285817 0.000000 0.000000 0.000000 5.560887 8.138970 0.568531 -7.372773 1.239486 12.278112 -2.011177 3.877214 -0.762695 0.091122 -0.469660 -0.203060 0.000000 0.000000 0.000000 8.354074 4.971593 0.565489 -11.993266 12.489488 -4.580488 -53.733669 -47.230130 -34.094607 0.000000 0.000000 0.000000 -0.899612 4.061578 -0.616193 13.377391 -7.172886 44.001503 3.667180 6.461074 -1.035601 -76.881101 -25.074741 -0.496330 -31.780744 -22.312459 5.213134 0.000000 0.000000 0.000000 1.693278 3.562593 0.962201 -9.951746 -20.111548 -49.928737 -2.045811 2.145619 -2.617146 -87.646149 22.688536 7.678219 -47.443088 19.000181 38.641577 0.000000 0.000000 0.000000 
5.614625 175.056488 -15.148470 0.000000 0.000000 0.000000 2.206863 -0.217793 0.926520 -50.066550 -2.294775 -3.152707 64.477334 5.104773 0.560603 13.985319 0.309835 -12.781871 -5.453162 2.665829 1.498198 0.000000 0.000000 0.000000 4.441009 -0.073121 0.650337 -20.147009 -8.985565 -11.400406 50.827706 13.012800 2.600430 10.116214 -21.091279 12.845643 -22.634202 3.678344 3.092579 0.000000 0.000000 0.000000 5.408694 3.020084 0.561076 -6.461851 3.000843 11.387090 -1.670144 4.445725 -0.086971 0.080793 -0.359488 -0.254873 0.000000 0.000000 0.000000 7.878934 5.704209 1.130462 -12.961090 11.191620 -2.772596 -50.546405 -48.263066 -33.204398 0.000000 0.000000 0.000000 -0.644392 4.570412 0.096439 12.312757 -3.623544 44.909737 3.304986 6.865103 -2.186265 -84.494221 -23.082083 -5.393093 -33.773093 -26.462091 5.168773 0.000000 0.000000 0.000000 1.917881 4.266070 1.681521 -10.445258 -19.805532 -51.143422 -1.945032 2.643819 -2.400567 -90.191938 21.229312 10.745384 -46.727209 17.448446 35.845639 0.000000 0.000000 0.000000 
4.852359 178.237106 -19.282190 0.000000 0.000000 0.000000 1.793035 -6.868089 1.251243 -48.226214 -2.497939 -3.933305 62.484223 4.207782 -0.068791 10.570324 1.211073 -9.091638 -0.179619 2.269659 0.012670 0.000000 0.000000 0.000000 3.831834 -8.616962 1.060423 -14.008851 -8.842806 -10.855638 41.457189 13.507450 1.851016 11.815044 -19.384577 12.832927 -24.748533 3.471034 3.150020 0.000000 0.000000 0.000000 5.086558 -4.190180 0.297285 -5.048917 5.504331 10.482084 -1.098023 5.251806 0.798880 0.114739 -0.380779 -0.227264 0.000000 0.000000 0.000000 7.138318 6.698121 1.880257 -13.924316 9.791726 -0.725049 -46.781851 -49.030639 -32.556045 0.000000 0.000000 0.000000 -0.110172 5.354549 0.879962 11.219484 0.856817 45.406804 3.630354 6.590750 -2.342216 -90.416104 -19.530342 -9.045145 -36.648565 -29.487839 5.008948 0.000000 0.000000 0.000000 2.037285 5.302278 2.496092 -10.820302 -18.978816 -52.618312 -2.993551 4.501464 -1.829828 -91.511182 20.607032 13.945903 -44.758356 15.046388 31.700465 0.000000 0.000000 0.000000 
3.963045 181.305573 -23.373552 0.000000 0.000000 0.000000 1.755656 -14.834990 1.453678 -46.231310 -2.445930 -3.906143 58.051772 3.593923 -0.985881 8.796833 2.988893 -4.426453 4.360152 1.860961 -1.347046 0.000000 0.000000 0.000000 3.290144 -17.915680 1.457925 -9.950126 -9.406455 -11.414942 30.797487 13.689445 1.504103 14.062253 -17.777504 12.453534 -19.504539 3.825988 2.290783 0.000000 0.000000 0.000000 4.741998 -12.538370 -0.189342 -3.410403 8.531109 9.568712 -0.427257 6.263312 1.713582 0.244797 -0.499709 -0.109933 0.000000 0.000000 0.000000 6.305885 7.873937 2.664289 -14.513431 8.444957 1.315844 -42.716614 -49.005566 -32.267986 0.000000 0.000000 0.000000 0.573763 6.384298 1.517236 10.498626 5.257500 45.079938 3.820506 5.872977 -1.171803 -93.003448 -15.574843 -10.515157 -39.473671 -30.378270 5.294650 0.000000 0.000000 0.000000 2.182404 6.621839 3.225275 -10.876993 -17.388960 -54.086140 -4.767387 6.010044 -1.096809 -91.650593 20.671257 17.018022 -42.151689 12.680695 26.977683 0.000000 0.000000 0.000000 
